HIERARCHY
ROOT Hips
{
	OFFSET 0.000000 8.830580 0.000000
	CHANNELS 6 Xposition Yposition Zposition Zrotation Yrotation Xrotation 
	JOINT Spine
	{
		OFFSET 0.000000 0.010000 0.000000
		CHANNELS 3 Zrotation Yrotation Xrotation
		JOINT Spine1
		{
			OFFSET 0.000000 2.459130 0.000000
			CHANNELS 3 Zrotation Yrotation Xrotation
			JOINT Neck
			{
				OFFSET 0.000000 2.484630 0.000000
				CHANNELS 3 Zrotation Yrotation Xrotation
				JOINT Head_virtual
				{
					OFFSET 0.000000 0.000000 0.000000
					CHANNELS 3 Zrotation Yrotation Xrotation
					JOINT Head
					{
						OFFSET 0.000000 0.927525 0.000000
						CHANNELS 3 Zrotation Yrotation Xrotation
						End Site
						{
							OFFSET 0.000000 0.000000 0.000000
						}
					}
				}
				JOINT LeftUpArm_virtual
				{
					OFFSET 0.000000 0.000000 0.000000
					CHANNELS 3 Zrotation Yrotation Xrotation
					JOINT LeftUpArm
					{
						OFFSET 1.248820 0.000000 0.000000
						CHANNELS 3 Zrotation Yrotation Xrotation
						JOINT LeftForeArm
						{
							OFFSET 2.597580 0.000000 0.000000
							CHANNELS 3 Zrotation Yrotation Xrotation
							JOINT LeftHand
							{
								OFFSET 2.455420 0.000000 0.000000
								CHANNELS 3 Zrotation Yrotation Xrotation
								End Site
								{
									OFFSET 0.000000 0.000000 0.000000
								}
							}
						}
					}
				}
				JOINT RightUpArm_virtual
				{
					OFFSET -0.000000 -0.000000 -0.000000
					CHANNELS 3 Zrotation Yrotation Xrotation
					JOINT RightUpArm
					{
						OFFSET -1.248820 -0.000000 -0.000000
						CHANNELS 3 Zrotation Yrotation Xrotation
						JOINT RightForeArm
						{
							OFFSET -2.597580 -0.000000 -0.000000
							CHANNELS 3 Zrotation Yrotation Xrotation
							JOINT RightHand
							{
								OFFSET -2.455420 -0.000000 -0.000000
								CHANNELS 3 Zrotation Yrotation Xrotation
								End Site
								{
									OFFSET 0.000000 0.000000 0.000000
								}
							}
						}
					}
				}
			}
		}
	}
	JOINT LeftUpLeg
	{
		OFFSET 1.271939 0.000000 0.000000
		CHANNELS 3 Zrotation Yrotation Xrotation
		JOINT LeftLowLeg
		{
			OFFSET 0.000000 -4.342910 0.000000
			CHANNELS 3 Zrotation Yrotation Xrotation
			JOINT LeftFoot
			{
				OFFSET 0.000000 -4.487670 0.000000
				CHANNELS 3 Zrotation Yrotation Xrotation
				JOINT LeftToeBase
				{
					OFFSET 0.000000 0.000000 1.515070
					CHANNELS 3 Zrotation Yrotation Xrotation
					End Site
					{
						OFFSET 0.000000 0.000000 0.000000
					}
				}
			}
		}
	}
	JOINT RightUpLeg
	{
		OFFSET -1.271939 0.000000 0.000000
		CHANNELS 3 Zrotation Yrotation Xrotation
		JOINT RightLowLeg
		{
			OFFSET 0.000000 -4.342910 0.000000
			CHANNELS 3 Zrotation Yrotation Xrotation
			JOINT RightFoot
			{
				OFFSET 0.000000 -4.487670 0.000000
				CHANNELS 3 Zrotation Yrotation Xrotation
				JOINT RightToeBase
				{
					OFFSET 0.000000 0.000000 1.515070
					CHANNELS 3 Zrotation Yrotation Xrotation
					End Site
					{
						OFFSET 0.000000 0.000000 0.000000
					}
				}
			}
		}
	}
}
MOTION
Frames: 7
Frame Time: 0.041667
-14.733441 8.708574 36.501729 167.581249 62.468069 -110.584771 13.365905 26.354074 30.271962 -1.190281 -26.140324 10.736639 0.000000 0.000000 0.000000 -1.017561 -6.009078 29.628501 -4.645195 14.832653 -102.042270 -22.388399 -5.340580 1.387370 48.594398 -50.175701 -50.170799 0.000000 -56.545700 0.000000 34.221699 2.605250 62.706200 16.980600 1.785620 5.138520 -52.655998 53.133900 -73.977898 0.000000 44.295799 0.000000 -30.923100 -7.400490 53.040901 -39.640581 2.551630 -98.183931 0.000000 0.000000 37.765800 -8.197186 4.564605 -5.191912 0.000000 0.000000 -9.111020 -19.830263 -7.079656 -110.060534 0.000000 0.000000 49.285900 27.731277 -3.991422 -2.522222 0.000000 0.000000 -8.657260 
-14.736643 8.707552 36.492253 167.553711 62.461480 -110.459527 13.312854 26.365949 30.222363 -1.158121 -26.168467 10.638008 0.000000 0.000000 0.000000 -0.994907 -6.010745 29.484695 -4.559768 14.842164 -101.962895 -22.034100 -5.295010 0.772727 47.846600 -50.674900 -49.720402 0.000000 -56.515499 0.000000 34.166801 2.833690 63.037498 17.066099 1.904760 5.350980 -52.964802 53.314899 -74.663902 0.000000 44.490200 0.000000 -31.039200 -8.198950 54.216301 -39.541604 2.382754 -98.285069 0.000000 0.000000 37.851501 -8.185241 4.688821 -5.247913 0.000000 0.000000 -9.110370 -19.853490 -7.204281 -110.162956 0.000000 0.000000 49.262699 27.787493 -3.938119 -2.543409 0.000000 0.000000 -8.314510 
-14.740669 8.707524 36.483619 167.532116 62.453028 -110.346271 13.269251 26.393981 30.204056 -1.046252 -26.176288 10.491852 0.000000 0.000000 0.000000 -1.056985 -5.932819 29.265752 -4.394745 14.728615 -101.856277 -21.980200 -5.400750 0.942422 48.066399 -50.299099 -49.821400 0.000000 -56.479099 0.000000 34.166302 3.112880 62.751301 17.088800 1.887920 5.481590 -53.336102 53.567600 -75.360298 0.000000 44.661800 0.000000 -31.200199 -8.195860 53.781300 -39.349901 2.215890 -98.356415 0.000000 0.000000 37.895401 -8.218726 4.839758 -5.275764 0.000000 0.000000 -9.174670 -19.862336 -7.309941 -110.273705 0.000000 0.000000 49.294899 27.808536 -4.018904 -2.589873 0.000000 0.000000 -8.824960 
-14.743502 8.708625 36.474089 167.687753 62.285199 -110.198544 13.371663 26.420336 30.304888 -0.824613 -26.072146 10.293788 0.000000 0.000000 0.000000 -1.009062 -6.097679 29.117015 -4.378426 14.706525 -101.817993 -21.422300 -5.326220 0.088726 47.002499 -51.112701 -49.188301 0.000000 -56.379700 0.000000 34.160999 3.161920 62.821499 17.075001 1.914840 5.513140 -53.251801 53.765301 -75.632698 0.000000 44.934299 0.000000 -31.387400 -8.208600 54.007000 -39.037126 2.130499 -98.381642 0.000000 0.000000 37.973900 -8.203889 5.015162 -5.299447 0.000000 0.000000 -9.181990 -19.709949 -7.338441 -110.202108 0.000000 0.000000 49.264000 27.816672 -4.044517 -2.646196 0.000000 0.000000 -8.841150 
-14.745558 8.711006 36.464831 167.969666 62.126566 -110.016328 13.515888 26.371149 30.481165 -0.702154 -26.008865 10.047394 0.000000 0.000000 0.000000 -1.197929 -5.831553 29.074693 -4.119027 14.469303 -101.814562 -20.849300 -5.461830 -0.615746 45.699902 -51.435299 -48.269100 0.000000 -56.349300 0.000000 34.274101 2.959260 63.624001 17.161699 2.098980 5.614760 -53.192600 54.004200 -75.657997 0.000000 45.119499 0.000000 -31.694500 -7.893410 54.287201 -38.665634 2.140379 -98.369847 0.000000 0.000000 38.031200 -8.232233 5.188513 -5.335826 0.000000 0.000000 -9.222560 -19.494226 -7.276261 -110.047250 0.000000 0.000000 49.155998 27.662810 -4.104146 -2.669752 0.000000 0.000000 -8.557380 
-14.748510 8.713314 36.456057 168.432466 61.806774 -109.750425 13.658244 26.404751 30.664250 -0.067843 -25.844627 9.768365 0.000000 0.000000 0.000000 -1.635228 -5.481613 28.538698 -3.691677 13.786328 -101.735833 -20.801901 -6.277630 -0.525701 45.247799 -50.354500 -47.654701 0.000000 -56.579601 0.000000 34.123402 2.946970 63.815899 17.161900 2.043420 5.786700 -53.612900 54.123199 -75.597504 0.000000 45.326099 0.000000 -31.892599 -7.331250 54.337101 -38.034431 2.180583 -98.362742 0.000000 0.000000 38.142601 -8.274944 5.450400 -5.388936 0.000000 0.000000 -9.210830 -19.123871 -7.164291 -109.771876 0.000000 0.000000 48.970100 27.689591 -4.017513 -2.668462 0.000000 0.000000 -8.142590 
-14.751883 8.715917 36.447421 168.887329 61.500922 -109.434368 13.892026 26.072442 30.725735 -0.213990 -25.911962 9.695703 0.000000 0.000000 0.000000 -2.444942 -4.598216 27.756818 -3.301921 12.780347 -101.709413 -20.125401 -6.990620 -0.717342 43.791302 -49.209301 -46.734699 0.000000 -57.059101 0.000000 34.557098 3.127650 63.866798 17.416201 2.553480 6.103680 -53.538200 54.377899 -74.551399 0.000000 45.713799 0.000000 -32.116901 -5.531750 52.406101 -37.345507 2.173201 -98.394404 0.000000 0.000000 38.240700 -8.299429 5.797899 -5.439912 0.000000 0.000000 -9.270210 -18.714816 -7.072141 -109.554485 0.000000 0.000000 48.776699 27.764592 -4.107794 -2.662945 0.000000 0.000000 -8.914800 
